<?xml version="1.0" standalone="no"?>
<!DOCTYPE svg PUBLIC "-//W3C//DTD SVG 20010904//EN"
 "http://www.w3.org/TR/2001/REC-SVG-20010904/DTD/svg10.dtd">
<svg version="1.0" xmlns="http://www.w3.org/2000/svg"
 width="300.000000pt" height="127.000000pt" viewBox="0 0 300.000000 127.000000"
 preserveAspectRatio="xMidYMid meet">
<metadata>
Created by potrace 1.10, written by Peter Selinger 2001-2011
</metadata>
<g transform="translate(0.000000,127.000000) scale(0.100000,-0.100000)"
fill="#000000" stroke="none">
<path d="M668 1110 c-12 -13 -31 -20 -55 -21 -89 -3 -175 -31 -242 -80 -62
-44 -133 -147 -155 -224 -18 -63 -20 -65 -37 -49 -25 23 -67 21 -92 -5 -21
-20 -22 -30 -19 -149 3 -108 6 -133 25 -166 24 -43 88 -82 142 -88 22 -2 36
-13 53 -40 14 -23 34 -40 50 -44 41 -10 52 -23 52 -60 0 -38 9 -43 103 -51
113 -11 173 -8 201 10 25 17 26 17 41 -13 9 -16 21 -30 28 -30 11 0 55 25 67
39 3 4 37 31 75 62 39 31 78 72 89 90 18 32 15 31 -35 -16 -96 -90 -177 -155
-193 -155 -11 0 -16 10 -16 34 0 18 -3 61 -6 94 -6 53 -4 62 11 68 10 4 26 2
37 -5 15 -9 23 -9 41 4 12 8 35 15 51 15 l30 0 -29 -30 c-16 -16 -44 -40 -62
-52 -30 -21 -44 -48 -25 -48 4 0 40 29 79 65 62 57 76 65 110 65 50 0 83 23
83 59 0 36 -28 61 -68 61 -42 0 -49 16 -13 28 53 19 66 88 21 112 -30 16 -24
32 11 28 30 -3 33 -9 83 -128 62 -150 61 -149 94 -161 36 -14 65 4 94 57 13
24 26 44 31 44 4 0 12 -12 17 -26 21 -54 48 -81 76 -78 40 4 69 40 107 134 58
140 79 212 74 247 -4 24 -2 31 8 27 16 -6 55 13 71 34 7 10 36 16 91 19 79 5
82 4 99 -22 24 -36 81 -33 104 7 14 26 13 29 -7 50 -21 21 -21 23 -5 50 19 33
11 54 -32 78 -26 14 -28 14 -53 -14 -20 -24 -24 -37 -20 -68 5 -37 4 -38 -26
-40 -18 -1 2 -4 43 -7 72 -6 75 -7 75 -31 0 -20 -5 -25 -25 -25 -18 0 -26 6
-28 23 -3 21 -7 22 -100 22 -91 0 -97 -1 -117 -25 l-20 -26 -225 -1 c-214 0
-225 0 -225 18 0 12 8 20 23 22 15 2 22 -2 22 -12 0 -14 25 -16 199 -16 l200
0 19 24 c14 19 31 26 68 29 l49 3 -51 2 c-42 2 -54 -2 -74 -23 -17 -18 -34
-25 -60 -25 -48 0 -55 8 -25 32 29 23 32 58 7 81 -23 21 -56 22 -77 1 -18 -18
-44 -21 -97 -10 -34 7 -39 6 -50 -18 -10 -22 -9 -29 5 -43 14 -15 22 -15 50
-5 45 16 55 15 83 -7 21 -16 22 -20 7 -25 -9 -4 -60 -6 -114 -5 -87 1 -100 4
-118 23 -19 20 -19 24 -6 42 8 10 15 27 15 36 0 22 -42 50 -64 42 -20 -8 -37
-64 -23 -81 6 -9 4 -21 -7 -38 -33 -50 11 -104 62 -76 27 14 39 -4 20 -27 -8
-9 -20 -29 -28 -44 -7 -16 -17 -28 -20 -28 -4 0 -18 24 -30 52 -23 54 -44 77
-70 78 -8 0 -25 24 -38 54 -13 30 -43 76 -67 103 -25 26 -44 57 -45 69 0 51
-82 83 -122 47 -25 -23 -58 -6 -95 49 -33 49 -60 58 -85 28z m92 -121 c0 -10
-22 -31 -48 -48 -81 -52 -109 -38 -67 34 14 25 23 50 20 55 -3 5 4 29 16 52
l22 43 28 -60 c15 -33 28 -67 29 -76z m-112 54 c-2 -14 -18 -20 -66 -26 -156
-19 -274 -132 -304 -290 -9 -51 -16 -67 -28 -65 -21 4 -24 68 -6 131 43 149
196 266 349 267 50 0 58 -2 55 -17z m260 -29 c13 8 42 -3 42 -15 0 -5 -16 -15
-35 -23 -19 -8 -35 -20 -35 -25 0 -17 18 -13 30 7 9 15 16 11 61 -37 43 -47
109 -143 109 -162 0 -4 -17 -3 -37 2 -21 5 -59 9 -84 9 -42 0 -47 3 -77 45
-28 41 -35 44 -69 42 -34 -2 -38 1 -41 25 -2 19 3 30 18 38 30 16 57 4 117
-53 37 -35 57 -47 64 -40 7 7 -6 25 -42 57 -28 25 -56 46 -63 46 -34 1 -37 17
-14 64 20 41 24 45 35 31 6 -10 16 -14 21 -11z m-94 -29 c-8 -20 -20 -19 -28
1 -11 28 -7 35 14 24 11 -6 17 -16 14 -25z m-194 -4 c0 -18 -32 -41 -56 -41
-32 0 -92 -31 -125 -63 -21 -21 -79 -124 -79 -140 0 -3 9 -7 20 -10 19 -5 20
-14 20 -135 0 -117 -2 -132 -22 -162 -53 -77 -130 -99 -207 -58 -69 36 -81 69
-81 213 0 128 5 145 47 145 35 0 43 -29 43 -154 0 -132 7 -146 70 -146 29 0
42 5 50 19 13 25 13 231 1 231 -15 0 -1 71 25 127 30 63 117 145 176 166 49
17 118 22 118 8z m122 -85 c-3 -27 1 -37 23 -55 15 -11 38 -21 51 -21 31 0 65
-47 43 -61 -8 -5 -24 -9 -36 -9 -20 0 -56 -34 -66 -63 -3 -8 -15 -2 -33 15
-42 38 -75 48 -167 48 -59 0 -89 -5 -105 -16 -18 -12 -26 -13 -37 -4 -20 17
-19 39 6 79 24 40 35 51 70 75 48 30 84 36 115 17 31 -19 78 -13 119 15 11 8
20 14 20 14 1 0 -1 -15 -3 -34z m1182 28 c18 -7 22 -49 6 -59 -19 -12 -50 6
-50 29 0 34 12 42 44 30z m-671 -37 c8 -20 -9 -41 -27 -34 -23 9 -21 47 3 47
10 0 21 -6 24 -13z m311 -12 c8 -9 13 -22 10 -30 -9 -22 -37 -28 -50 -11 -14
19 -104 22 -122 4 -9 -9 -15 -9 -23 -1 -22 22 1 31 64 26 50 -4 65 -2 76 11
17 20 25 20 45 1z m-94 -145 c12 -8 12 -13 -6 -37 -11 -15 -23 -36 -27 -45 -3
-10 -11 -18 -16 -18 -15 0 -38 39 -46 78 l-7 32 44 0 c24 0 50 -5 58 -10z
m-880 -10 c59 0 73 -4 99 -26 60 -50 58 -133 -4 -182 l-28 -22 32 -40 c41 -51
39 -85 -4 -85 -24 0 -38 11 -82 69 -29 37 -53 73 -53 80 0 24 19 39 56 45 33
5 39 11 42 33 4 34 -29 58 -79 58 l-37 0 -1 -136 c-1 -75 -4 -141 -7 -145 -8
-13 -48 -11 -62 3 -13 13 -17 315 -4 334 9 15 34 23 50 18 8 -2 44 -4 82 -4z
m386 0 c54 0 64 -3 69 -20 12 -39 -11 -50 -102 -50 l-84 0 3 -37 3 -37 61 3
c46 2 65 -2 78 -14 39 -40 11 -65 -75 -65 l-67 0 2 -32 1 -33 90 -5 c89 -5 90
-5 93 -32 5 -40 -21 -48 -138 -45 -82 2 -104 5 -114 19 -9 12 -12 62 -10 174
2 182 5 190 83 180 24 -3 72 -6 107 -6z m160 0 c6 -6 26 -53 45 -105 19 -52
37 -95 40 -95 3 0 23 43 44 95 46 113 60 130 75 89 33 -88 75 -184 80 -184 4
0 24 43 45 96 44 108 67 131 97 94 16 -20 16 -24 2 -58 -9 -21 -38 -91 -65
-157 -28 -66 -56 -126 -64 -134 -22 -23 -39 -1 -76 99 -30 80 -49 110 -49 79
0 -20 -61 -164 -76 -179 -12 -12 -16 -12 -28 0 -17 18 -136 301 -136 323 0 19
27 47 44 47 6 0 17 -5 22 -10z m-872 -80 c24 -9 26 -14 26 -75 0 -77 -12 -105
-43 -105 -39 0 -47 19 -47 107 0 91 5 96 64 73z m486 -167 c0 -45 0 -46 -20
-28 -25 22 -26 51 -2 64 9 6 18 11 20 11 1 0 2 -21 2 -47z m-328 -92 c-10 -29
-72 -59 -72 -35 0 19 63 75 73 65 4 -4 4 -18 -1 -30z m256 -41 c22 0 44 8 58
21 l22 21 12 -22 c10 -18 9 -22 -9 -27 -11 -3 -26 -18 -33 -35 -10 -22 -18
-28 -33 -23 -11 4 -37 6 -57 5 -44 -1 -114 18 -128 35 -7 8 0 18 20 34 17 12
30 30 30 40 0 34 14 31 48 -9 28 -33 41 -40 70 -40z m-330 -39 c68 -66 145
-102 232 -109 49 -3 70 -1 70 7 0 7 -20 11 -52 12 -62 0 -118 21 -183 67 -39
27 -45 35 -35 47 18 22 40 18 89 -15 56 -38 114 -54 168 -46 47 6 50 2 56 -74
2 -34 2 -34 -48 -42 -52 -8 -96 -4 -153 14 -27 8 -36 7 -45 -6 -10 -13 -14
-13 -31 -1 -18 13 -18 16 -3 39 16 24 16 26 -13 46 -19 13 -37 19 -49 15 -14
-4 -24 1 -34 17 -15 23 -31 78 -23 78 2 0 26 -22 54 -49z"/>
<path d="M2034 948 c-21 -26 -36 -77 -29 -97 11 -35 39 -43 87 -26 64 22 80
19 123 -25 l39 -40 -22 -22 -22 -22 -41 23 c-84 47 -194 10 -234 -79 -15 -34
-16 -46 -7 -79 7 -21 23 -50 37 -65 31 -34 31 -40 0 -60 l-24 -16 -69 137
c-73 146 -105 184 -138 163 -25 -16 -61 -73 -122 -195 -68 -135 -76 -167 -50
-200 27 -35 68 -33 111 5 48 42 104 42 147 0 36 -35 73 -39 110 -11 24 19 25
19 67 -6 38 -22 50 -24 101 -18 88 11 162 77 162 146 0 28 -27 90 -52 116 -17
18 -19 25 -9 37 9 11 19 12 34 6 12 -5 34 -11 50 -14 l27 -6 0 -107 c0 -89 3
-111 20 -138 18 -29 25 -33 57 -30 43 3 73 33 74 74 2 131 6 188 13 199 4 6
20 12 37 12 l29 0 0 -115 c0 -112 1 -115 29 -147 28 -31 30 -32 117 -32 111 0
154 12 174 47 13 24 13 30 0 55 -9 15 -28 33 -44 40 l-28 14 21 22 c29 31 27
71 -4 92 -27 17 -25 34 4 34 23 0 61 41 61 66 0 29 -41 64 -74 64 -24 0 -27 2
-16 15 7 8 19 15 26 15 7 0 21 11 29 24 15 23 15 27 0 50 -19 28 -48 41 -67
30 -7 -4 -55 -9 -108 -10 -52 -1 -107 -2 -123 -3 -17 -1 -44 -16 -71 -41 -50
-46 -66 -50 -66 -16 0 30 -43 60 -77 53 -18 -3 -35 4 -61 27 -49 43 -208 81
-228 54z m71 -28 c3 -5 30 -10 59 -10 50 0 56 -3 94 -44 23 -25 44 -41 47 -35
4 5 17 9 29 9 50 0 63 -62 15 -68 -21 -2 -37 9 -83 62 l-58 66 -51 -2 -52 -2
46 -3 c42 -4 50 -9 114 -80 38 -42 59 -71 47 -64 -11 6 -42 36 -69 66 -44 50
-52 55 -90 55 -23 0 -45 -4 -48 -10 -11 -18 -54 -11 -65 10 -15 28 4 60 35 60
13 0 27 -4 30 -10z m713 -91 l3 -26 -148 4 -148 4 -42 -41 c-24 -22 -43 -43
-43 -45 0 -3 20 -5 45 -5 34 0 47 -5 55 -19 19 -36 3 -51 -56 -51 l-54 0 0
-140 c0 -140 0 -140 -25 -152 -48 -22 -55 -2 -55 153 l0 138 -57 3 c-46 2 -58
7 -61 21 -7 35 16 47 92 47 l71 0 56 60 55 60 127 0 c77 0 128 4 132 11 13 20
50 5 53 -22z m-123 -59 c51 -1 56 -3 31 -10 -16 -5 -40 -7 -55 -4 -14 3 -46
-1 -70 -10 -31 -10 -50 -12 -63 -5 -41 22 -15 39 52 34 25 -2 72 -4 105 -5z
m-850 -218 c63 -130 77 -167 68 -180 -18 -29 -56 -21 -73 15 -15 32 -15 33
-91 33 l-75 0 -17 -36 c-13 -27 -23 -35 -39 -32 -48 7 -44 28 37 194 82 169
94 190 105 177 4 -4 42 -81 85 -171z m305 163 c16 -8 34 -24 40 -35 8 -16 6
-22 -14 -35 -22 -15 -27 -15 -54 -1 -35 18 -69 11 -77 -16 -9 -28 12 -48 52
-48 69 0 123 -47 123 -108 0 -75 -54 -122 -140 -122 -35 0 -100 22 -100 34 0
3 -3 11 -6 19 -3 10 4 22 21 33 24 16 27 16 59 -1 47 -26 86 -14 86 25 0 31
-2 31 -103 54 -38 9 -65 38 -73 82 -18 95 94 166 186 119z m680 -10 c6 -8 10
-22 8 -32 -3 -15 -16 -18 -94 -21 l-91 -3 2 -36 3 -37 50 3 c61 3 92 -11 92
-43 0 -29 -16 -36 -88 -36 l-57 0 0 -35 0 -35 81 0 c86 0 109 -11 102 -47 -3
-16 -16 -18 -128 -18 l-125 0 -3 164 c-2 112 1 168 9 177 17 20 222 20 239 -1z"/>
<path d="M1736 544 c-20 -43 -18 -46 21 -42 l30 3 -17 37 -16 38 -18 -36z"/>
</g>
</svg>
